{"asset":{"version":"2.0","generator":"Blockbench 4.12.6 glTF exporter"},"scenes":[{"nodes":[1],"name":"blockbench_export"}],"scene":0,"nodes":[{"name":"root"},{"name":"root","mesh":0,"children":[0],"skin":0}],"bufferViews":[{"buffer":0,"byteOffset":0,"byteLength":288,"target":34962,"byteStride":12},{"buffer":0,"byteOffset":288,"byteLength":288,"target":34962,"byteStride":12},{"buffer":0,"byteOffset":576,"byteLength":192,"target":34962,"byteStride":8},{"buffer":0,"byteOffset":768,"byteLength":192,"target":34962,"byteStride":8},{"buffer":0,"byteOffset":960,"byteLength":384,"target":34962,"byteStride":16},{"buffer":0,"byteOffset":1344,"byteLength":72,"target":34963},{"buffer":0,"byteOffset":1416,"byteLength":64},{"buffer":0,"byteOffset":1480,"byteLength":68},{"buffer":0,"byteOffset":1548,"byteLength":272},{"buffer":0,"byteOffset":1820,"byteLength":68},{"buffer":0,"byteOffset":1888,"byteLength":204},{"buffer":0,"byteOffset":2092,"byteLength":64},{"buffer":0,"byteOffset":2156,"byteLength":192}],"buffers":[{"byteLength":2348,"uri":"data:application/octet-stream;base64,"}],"accessors":[{"bufferView":0,"componentType":5126,"count":24,"max":[0.0625,1.4375,0.375],"min":[-0.3125,0,-0.4375],"type":"VEC3"},{"bufferView":1,"componentType":5126,"count":24,"max":[1,1,1],"min":[-1,-1,-1],"type":"VEC3"},{"bufferView":2,"componentType":5126,"count":24,"max":[0.359375,0.046875],"min":[0.015625,0.015625],"type":"VEC2"},{"bufferView":3,"componentType":5123,"count":24,"max":[0,0,0,0],"min":[0,0,0,0],"type":"VEC4"},{"bufferView":4,"componentType":5126,"count":24,"max":[0,1,0,0],"min":[0,1,0,0],"type":"VEC4"},{"bufferView":5,"componentType":5123,"count":36,"max":[23],"min":[0],"type":"SCALAR"},{"bufferView":6,"componentType":5126,"count":1,"max":[1,0,0,0,0,1,0,0,0,0,1,0,0,0,0,1],"min":[1,0,0,0,0,1,0,0,0,0,1,0,0,0,0,1],"type":"MAT4"},{"bufferView":7,"componentType":5126,"count":17,"max":[1],"min":[0],"type":"SCALAR"},{"bufferView":8,"componentType":5126,"count":17,"max":[0,0.0002747611724771559,0.03489949554204941,0.9993908405303955],"min":[-0.05213586241006851,-0.0010455130832269788,-0.006055197212845087,0.9985743761062622],"type":"VEC4"},{"bufferView":9,"componentType":5126,"count":17,"max":[1],"min":[0],"type":"SCALAR"},{"bufferView":10,"componentType":5126,"count":17,"max":[0,0.0625,0],"min":[0,0,0],"type":"VEC3"},{"bufferView":11,"componentType":5126,"count":16,"max":[1],"min":[0],"type":"SCALAR"},{"bufferView":12,"componentType":5126,"count":16,"max":[1,1.5,2],"min":[1,0.30000001192092896,1],"type":"VEC3"}],"materials":[{"pbrMetallicRoughness":{"metallicFactor":0,"roughnessFactor":1,"baseColorTexture":{"index":0}},"alphaMode":"MASK","alphaCutoff":0.05,"doubleSided":true}],"textures":[{"sampler":0,"source":0,"name":"texture"}],"samplers":[{"magFilter":9728,"minFilter":9728,"wrapS":33071,"wrapT":33071}],"images":[{"mimeType":"image/png","uri":"data:image/png;base64,"}],"meshes":[{"primitives":[{"mode":4,"attributes":{"POSITION":0,"NORMAL":1,"TEXCOORD_0":2,"JOINTS_0":3,"WEIGHTS_0":4},"indices":5,"material":0}]}],"skins":[{"inverseBindMatrices":6,"joints":[0],"skeleton":0}],"animations":[{"name":"move1","samplers":[{"input":7,"output":8,"interpolation":"LINEAR"},{"input":9,"output":10,"interpolation":"LINEAR"},{"input":11,"output":12,"interpolation":"LINEAR"}],"channels":[{"sampler":0,"target":{"node":0,"path":"rotation"}},{"sampler":1,"target":{"node":0,"path":"translation"}},{"sampler":2,"target":{"node":0,"path":"scale"}}]}]}