# Made in Blockbench 5.0.3
mtllib toilet.mtl

o cone
v 1.6326809185664067e-18 0 1.2245106889248049e-18
v 1.6326809185664067e-18 0.5 1.2245106889248049e-18
v 0.13397459621556126 0 0.375
v 0.36602540378443843 0 0.27451905283832895
v 0.5 0 0.10048094716167098
v 0.5 0 -0.10048094716167101
v 0.36602540378443854 0 -0.27451905283832895
v 0.13397459621556146 0 -0.3749999999999999
v -0.13397459621556113 0 -0.375
v -0.36602540378443854 0 -0.27451905283832906
v -0.4999999999999999 0 -0.10048094716167096
v -0.5 0 0.10048094716167083
v -0.3660254037844387 0 0.27451905283832884
v -0.13397459621556126 0 0.375
vt 0.12940937979190303 0.9352953101040485
vt 0.11207200540068536 1
vt 0 0.9352953101040484
vt 0 0.823221875
vt 0.0669875 0.823221875
vt 0.03349375 1
vt 0.12940954867807283 0.9352953945470232
vt 0.11207185914090836 1
vt 0 0.9352953945470233
vt 0 0.823221875
vt 0.0669875 0.823221875
vt 0.03349375 1
vt 0.125 0.9330125
vt 0.125 1
vt 0 0.96650625
vt 0 0.823221875
vt 0.0669875 0.823221875
vt 0.03349375 1
vt 1.3877787807814457e-17 0.870590620208097
vt 0.06470468989595152 0.8879279945993146
vt 0 1
vt 0 0.823221875
vt 0.0669875 0.823221875
vt 0.03349375 1
vt 0 0.8705904513219271
vt 0.06470460545297682 0.8879281408590917
vt 2.0816681711721685e-17 1
vt 0 0.823221875
vt 0.0669875 0.823221875
vt 0.03349375 1
vt 0 0.875
vt 0.0669875 0.875
vt 0.03349375 1
vt 0 0.823221875
vt 0.0669875 0.823221875
vt 0.03349375 1
vt 0 1
vt 0.017337374391217672 0.9352953101040484
vt 0.12940937979190303 1
vt 0 0.823221875
vt 0.0669875 0.823221875
vt 0.03349375 1
vt 0 1
vt 0.01733768953716447 0.9352953945470232
vt 0.12940954867807283 1
vt 0 0.823221875
vt 0.0669875 0.823221875
vt 0.03349375 1
vt 0 1
vt 0 0.9330125
vt 0.125 0.96650625
vt 0 0.823221875
vt 0.0669875 0.823221875
vt 0.03349375 1
vt 0.0647046898959515 1
vt 0 0.9826626256087824
vt 0.06470468989595152 0.870590620208097
vt 0 0.823221875
vt 0.0669875 0.823221875
vt 0.03349375 1
vt 0.06470460545297682 1
vt 0 0.9826623104628356
vt 0.0647046054529768 0.8705904513219271
vt 0 0.823221875
vt 0.0669875 0.823221875
vt 0.03349375 1
vt 0.0669875 1
vt 0 1
vt 0.03349375 0.875
vt 0 0.823221875
vt 0.0669875 0.823221875
vt 0.03349375 1
vn 0 -1 0
vn 0.3110855084191279 0.6221710168382552 0.7184212081070996
vn 0 -1 0
vn 0.5846128222154676 0.6750527405556143 0.45003516037041025
vn 0 -1 0
vn 0.7071067811865476 0.7071067811865476 0
vn 0 -1 0
vn 0.5846128222154677 0.6750527405556144 -0.45003516037040997
vn 0 -1 0
vn 0.31108550841912763 0.6221710168382552 -0.7184212081070996
vn 0 -1 0
vn 3.3147269885071037e-16 0.6 -0.8000000000000002
vn 0 -1 0
vn -0.31108550841912735 0.6221710168382552 -0.7184212081070999
vn 0 -1 0
vn -0.5846128222154682 0.6750527405556144 -0.4500351603704094
vn 0 -1 0
vn -0.7071067811865476 0.7071067811865476 -3.9064432189257304e-16
vn 0 -1 0
vn -0.5846128222154681 0.6750527405556144 0.45003516037040947
vn 0 -1 0
vn -0.31108550841912785 0.6221710168382552 0.7184212081070996
vn 0 -1 0
vn 0 0.6000000000000001 0.8000000000000002
usemtl m_ab7c84cd-c7f2-66ef-9e27-7f9657bbc79c
f 4/1/1 3/2/1 1/3/1
f 3/4/2 4/5/2 2/6/2
f 5/7/3 4/8/3 1/9/3
f 4/10/4 5/11/4 2/12/4
f 6/13/5 5/14/5 1/15/5
f 5/16/6 6/17/6 2/18/6
f 7/19/7 6/20/7 1/21/7
f 6/22/8 7/23/8 2/24/8
f 8/25/9 7/26/9 1/27/9
f 7/28/10 8/29/10 2/30/10
f 9/31/11 8/32/11 1/33/11
f 8/34/12 9/35/12 2/36/12
f 10/37/13 9/38/13 1/39/13
f 9/40/14 10/41/14 2/42/14
f 11/43/15 10/44/15 1/45/15
f 10/46/16 11/47/16 2/48/16
f 12/49/17 11/50/17 1/51/17
f 11/52/18 12/53/18 2/54/18
f 13/55/19 12/56/19 1/57/19
f 12/58/20 13/59/20 2/60/20
f 14/61/21 13/62/21 1/63/21
f 13/64/22 14/65/22 2/66/22
f 3/67/23 14/68/23 1/69/23
f 14/70/24 3/71/24 2/72/24
o cone
v -1.6326809185664067e-18 0.5 1.2245106889248049e-18
v 5.959965903880126e-17 0 1.2245106889248049e-18
v -0.13397459621556126 0.5 0.375
v -0.36602540378443843 0.49999999999999994 0.27451905283832895
v -0.5 0.49999999999999994 0.10048094716167098
v -0.5 0.49999999999999994 -0.10048094716167101
v -0.36602540378443854 0.49999999999999994 -0.27451905283832895
v -0.13397459621556146 0.5 -0.3749999999999999
v 0.13397459621556113 0.5 -0.375
v 0.36602540378443854 0.5 -0.27451905283832906
v 0.4999999999999999 0.5000000000000001 -0.10048094716167096
v 0.5 0.5000000000000001 0.10048094716167083
v 0.3660254037844387 0.5 0.27451905283832884
v 0.13397459621556126 0.5 0.375
vt 0.12940937979190303 0.9352953101040485
vt 0.11207200540068536 1
vt 0 0.9352953101040484
vt 0 0.823221875
vt 0.0669875 0.823221875
vt 0.03349375 1
vt 0.12940954867807283 0.9352953945470232
vt 0.11207185914090836 1
vt 0 0.9352953945470233
vt 0 0.823221875
vt 0.0669875 0.823221875
vt 0.03349375 1
vt 0.125 0.9330125
vt 0.125 1
vt 0 0.96650625
vt 0 0.823221875
vt 0.0669875 0.823221875
vt 0.03349375 1
vt 1.3877787807814457e-17 0.870590620208097
vt 0.06470468989595152 0.8879279945993146
vt 0 1
vt 0 0.823221875
vt 0.0669875 0.823221875
vt 0.03349375 1
vt 0 0.8705904513219271
vt 0.06470460545297682 0.8879281408590917
vt 2.0816681711721685e-17 1
vt 0 0.823221875
vt 0.0669875 0.823221875
vt 0.03349375 1
vt 0 0.875
vt 0.0669875 0.875
vt 0.03349375 1
vt 0 0.823221875
vt 0.0669875 0.823221875
vt 0.03349375 1
vt 0 1
vt 0.017337374391217672 0.9352953101040484
vt 0.12940937979190303 1
vt 0 0.823221875
vt 0.0669875 0.823221875
vt 0.03349375 1
vt 0 1
vt 0.01733768953716447 0.9352953945470232
vt 0.12940954867807283 1
vt 0 0.823221875
vt 0.0669875 0.823221875
vt 0.03349375 1
vt 0 1
vt 0 0.9330125
vt 0.125 0.96650625
vt 0 0.823221875
vt 0.0669875 0.823221875
vt 0.03349375 1
vt 0.0647046898959515 1
vt 0 0.9826626256087824
vt 0.06470468989595152 0.870590620208097
vt 0 0.823221875
vt 0.0669875 0.823221875
vt 0.03349375 1
vt 0.06470460545297682 1
vt 0 0.9826623104628356
vt 0.0647046054529768 0.8705904513219271
vt 0 0.823221875
vt 0.0669875 0.823221875
vt 0.03349375 1
vt 0.0669875 1
vt 0 1
vt 0.03349375 0.875
vt 0 0.823221875
vt 0.0669875 0.823221875
vt 0.03349375 1
vn -1.2246467991473532e-16 1 0
vn -0.31108550841912785 -0.6221710168382552 0.7184212081070996
vn -1.2246467991473532e-16 1 0
vn -0.5846128222154675 -0.6750527405556144 0.45003516037041025
vn -1.2246467991473532e-16 1 0
vn -0.7071067811865475 -0.7071067811865477 0
vn -1.2246467991473532e-16 1 0
vn -0.5846128222154675 -0.6750527405556144 -0.45003516037040986
vn -1.2246467991473532e-16 1 0
vn -0.3110855084191276 -0.6221710168382552 -0.7184212081070996
vn -1.2246467991473532e-16 1 0
vn -2.579938909018692e-16 -0.6 -0.8000000000000002
vn -1.2246467991473532e-16 1 0
vn 0.31108550841912735 -0.622171016838255 -0.7184212081070998
vn -1.2246467991473532e-16 1 0
vn 0.5846128222154682 -0.6750527405556142 -0.4500351603704093
vn -1.2246467991473532e-16 1 0
vn 0.7071067811865477 -0.7071067811865475 -3.9064432189257304e-16
vn -1.2246467991473532e-16 1 0
vn 0.5846128222154682 -0.6750527405556143 0.45003516037040947
vn -1.2246467991473532e-16 1 0
vn 0.3110855084191279 -0.6221710168382552 0.7184212081070996
vn -1.2246467991473532e-16 1 0
vn 7.34788079488412e-17 -0.6000000000000001 0.8000000000000002
usemtl m_ab7c84cd-c7f2-66ef-9e27-7f9657bbc79c
f 18/73/25 17/74/25 15/75/25
f 17/76/26 18/77/26 16/78/26
f 19/79/27 18/80/27 15/81/27
f 18/82/28 19/83/28 16/84/28
f 20/85/29 19/86/29 15/87/29
f 19/88/30 20/89/30 16/90/30
f 21/91/31 20/92/31 15/93/31
f 20/94/32 21/95/32 16/96/32
f 22/97/33 21/98/33 15/99/33
f 21/100/34 22/101/34 16/102/34
f 23/103/35 22/104/35 15/105/35
f 22/106/36 23/107/36 16/108/36
f 24/109/37 23/110/37 15/111/37
f 23/112/38 24/113/38 16/114/38
f 25/115/39 24/116/39 15/117/39
f 24/118/40 25/119/40 16/120/40
f 26/121/41 25/122/41 15/123/41
f 25/124/42 26/125/42 16/126/42
f 27/127/43 26/128/43 15/129/43
f 26/130/44 27/131/44 16/132/44
f 28/133/45 27/134/45 15/135/45
f 27/136/46 28/137/46 16/138/46
f 17/139/47 28/140/47 15/141/47
f 28/142/48 17/143/48 16/144/48
o beveled_cuboid
v 0.31250000000000006 1.15625 0.375
v 0.31250000000000006 1.15625 -0.375
v 0.31249999999999994 0.5937500000000001 0.375
v 0.31249999999999994 0.5937500000000001 -0.375
v 0.6875000000000001 1.15625 0.375
v 0.6875000000000001 1.15625 -0.375
v 0.6875 0.59375 0.375
v 0.6875 0.59375 -0.375
v 0.5937499999999999 0.5 0.375
v 0.4062499999999999 0.5 0.375
v 0.5937499999999999 0.5 -0.375
v 0.4062499999999999 0.5 -0.375
v 0.5937500000000001 1.25 0.375
v 0.4062500000000001 1.25 0.375
v 0.5937500000000001 1.25 -0.375
v 0.4062500000000001 1.25 -0.375
v 0.59375 1.15625 -0.5
v 0.40625000000000006 1.15625 -0.5
v 0.59375 0.59375 -0.5
v 0.40624999999999994 0.59375 -0.5
v 0.59375 1.15625 0.5
v 0.40625000000000006 1.15625 0.5
v 0.59375 0.59375 0.5
v 0.40624999999999994 0.59375 0.5
vt 0.1875 0.796875
vt 0 0.796875
vt 0 0.75
vt 0.1875 0.75
vt 0.390625 0.75
vt 0.390625 0.796875
vt 0.203125 0.796875
vt 0.203125 0.75
vt 0.140625 0.8125
vt 0.140625 1
vt 0 1
vt 0 0.8125
vt 0.15625 0.8125
vt 0.296875 0.8125
vt 0.296875 1
vt 0.15625 1
vt 0.453125 0.828125
vt 0.453125 0.875
vt 0.3125 0.875
vt 0.3125 0.828125
vt 0.140625 0.671875
vt 0 0.671875
vt 0 0.625
vt 0.140625 0.625
vt 0.2265625 0.734375
vt 0.0390625 0.734375
vt 0.0390625 0.701228125
vt 0.2265625 0.701228125
vt 0.4453125 0.701228125
vt 0.4453125 0.734375
vt 0.2578125 0.734375
vt 0.2578125 0.701228125
vt 0.296875 0.625
vt 0.296875 0.671875
vt 0.15625 0.671875
vt 0.15625 0.625
vt 0.453125 0.671875
vt 0.3125 0.671875
vt 0.3125 0.625
vt 0.453125 0.625
vt 0.2578125 0.9862703125
vt 0.2578125 0.953125
vt 0.4453125 0.953125
vt 0.4453125 0.9862703125
vt 0.2578125 0.890625
vt 0.4453125 0.890625
vt 0.4453125 0.9237703125
vt 0.2578125 0.9237703125
vt 0 0.5625
vt 0.140625 0.5625
vt 0.140625 0.609375
vt 0 0.609375
vt 0.15625 0.609375
vt 0.15625 0.5625
vt 0.296875 0.5625
vt 0.296875 0.609375
vt 0.3125 0.5625
vt 0.359375 0.5625
vt 0.359375 0.609375
vt 0.3125 0.609375
vt 0.375 0.609375
vt 0.375 0.5625
vt 0.421875 0.5625
vt 0.421875 0.609375
vt 0.40625 0.8125
vt 0.40625 0.765625
vt 0.453125 0.765625
vt 0.453125 0.8125
vt 0.4375 0.5625
vt 0.484375 0.5625
vt 0.484375 0.609375
vt 0.4375 0.609375
vt 0.3515625 0.953125
vt 0.3515625 0.9862701030169452
vt 0.31619002534493984 0.9696970241531031
vt 0.3828125 0.875
vt 0.4181849746550601 0.8915720241531031
vt 0.3828125 0.9081451030169452
vt 0.4296875 0.921875
vt 0.4650599746550601 0.9384470241531031
vt 0.4296875 0.9550201030169452
vt 0.3515625 0.890625
vt 0.3515625 0.9237701030169452
vt 0.31619002534493984 0.9071970241531031
vt 0.0390625 0.734375
vt 0.003689693894038837 0.7178008534961615
vt 0.0390625 0.7012284820774395
vt 0.3828125 0.71875
vt 0.3828125 0.6856034820774395
vt 0.41818530610596116 0.7021758534961615
vt 0.2265625 0.734375
vt 0.2265625 0.7012284820774395
vt 0.26193530610596116 0.7178008534961615
vt 0.3203125 0.734375
vt 0.28493969389403884 0.7178008534961615
vt 0.3203125 0.7012284820774395
vn 2.220446049250313e-16 1 0
vn -2.220446049250313e-16 -1 0
vn -1 2.220446049250313e-16 0
vn 1 -2.220446049250313e-16 0
vn 0 0 1
vn 0 0 -1
vn -0.7071067811865475 0.7071067811865477 0
vn -0.7071067811865477 -0.7071067811865475 0
vn -0.8 1.7763568394002506e-16 0.6
vn -0.8 1.7763568394002506e-16 -0.6
vn 0.7071067811865477 0.7071067811865475 0
vn 0.7071067811865475 -0.7071067811865477 0
vn 0.8 -1.7763568394002506e-16 0.6
vn 0.8 -1.7763568394002506e-16 -0.6
vn 1.7763568394002506e-16 0.8 -0.6
vn 1.7763568394002506e-16 0.8 0.6
vn -1.7763568394002506e-16 -0.8 -0.6
vn -1.7763568394002506e-16 -0.8 0.6
vn 0.6246950475544244 0.6246950475544242 0.4685212856658182
vn 0.6246950475544242 -0.6246950475544244 0.4685212856658182
vn 0.6246950475544244 0.6246950475544242 -0.4685212856658182
vn 0.6246950475544242 -0.6246950475544244 -0.4685212856658182
vn -0.6246950475544242 0.6246950475544244 0.4685212856658182
vn -0.6246950475544244 -0.6246950475544242 0.4685212856658182
vn -0.6246950475544242 0.6246950475544244 -0.4685212856658182
vn -0.6246950475544244 -0.6246950475544242 -0.4685212856658182
usemtl m_ab7c84cd-c7f2-66ef-9e27-7f9657bbc79c
f 44/145/49 42/146/49 41/147/49 43/148/49
f 37/149/50 38/150/50 40/151/50 39/152/50
f 29/153/51 30/154/51 32/155/51 31/156/51
f 36/157/52 34/158/52 33/159/52 35/160/52
f 49/161/53 50/162/53 52/163/53 51/164/53
f 48/165/54 46/166/54 45/167/54 47/168/54
f 30/169/55 29/170/55 42/171/55 44/172/55
f 38/173/56 31/174/56 32/175/56 40/176/56
f 50/177/57 29/178/57 31/179/57 52/180/57
f 32/181/58 30/182/58 46/183/58 48/184/58
f 41/185/59 33/186/59 34/187/59 43/188/59
f 36/189/60 35/190/60 37/191/60 39/192/60
f 35/193/61 33/194/61 49/195/61 51/196/61
f 45/197/62 34/198/62 36/199/62 47/200/62
f 43/201/63 45/202/63 46/203/63 44/204/63
f 50/205/64 49/206/64 41/207/64 42/208/64
f 48/209/65 47/210/65 39/211/65 40/212/65
f 37/213/66 51/214/66 52/215/66 38/216/66
f 33/217/67 41/218/67 49/219/67
f 35/220/68 51/221/68 37/222/68
f 34/223/69 45/224/69 43/225/69
f 36/226/70 39/227/70 47/228/70
f 29/229/71 50/230/71 42/231/71
f 31/232/72 38/233/72 52/234/72
f 30/235/73 44/236/73 46/237/73
f 32/238/74 48/239/74 40/240/74
o cone
v -1.1224681315144043e-18 0.500625 8.16340459283203e-19
v 6.010987182585325e-17 0.0006249999999999867 8.16340459283203e-19
v -0.09210753489819838 0.500625 0.25
v -0.25164246510180144 0.500625 0.1830127018922193
v -0.34375 0.500625 0.06698729810778065
v -0.34375 0.500625 -0.06698729810778066
v -0.25164246510180155 0.500625 -0.1830127018922193
v -0.09210753489819849 0.500625 -0.24999999999999986
v 0.09210753489819828 0.500625 -0.25
v 0.25164246510180155 0.500625 -0.1830127018922193
v 0.34374999999999983 0.500625 -0.06698729810778062
v 0.34375 0.500625 0.06698729810778055
v 0.25164246510180166 0.500625 0.18301270189221922
v 0.09210753489819838 0.500625 0.25
vt 0.723159379791903 0.8415453101040484
vt 0.7058220054006854 0.90625
vt 0.59375 0.8415453101040484
vt 0.59375 0.729471875
vt 0.6607375 0.729471875
vt 0.62724375 0.90625
vt 0.7231595486780729 0.8415453945470232
vt 0.7058218591409083 0.90625
vt 0.59375 0.8415453945470233
vt 0.59375 0.729471875
vt 0.6607375 0.729471875
vt 0.62724375 0.90625
vt 0.71875 0.8392625
vt 0.71875 0.90625
vt 0.59375 0.87275625
vt 0.59375 0.729471875
vt 0.6607375 0.729471875
vt 0.62724375 0.90625
vt 0.59375 0.776840620208097
vt 0.6584546898959516 0.7941779945993146
vt 0.59375 0.90625
vt 0.59375 0.729471875
vt 0.6607375 0.729471875
vt 0.62724375 0.90625
vt 0.59375 0.7768404513219271
vt 0.6584546054529768 0.7941781408590917
vt 0.59375 0.90625
vt 0.59375 0.729471875
vt 0.6607375 0.729471875
vt 0.62724375 0.90625
vt 0.59375 0.78125
vt 0.6607375 0.78125
vt 0.62724375 0.90625
vt 0.59375 0.729471875
vt 0.6607375 0.729471875
vt 0.62724375 0.90625
vt 0.59375 0.90625
vt 0.6110873743912177 0.8415453101040484
vt 0.723159379791903 0.90625
vt 0.59375 0.729471875
vt 0.6607375 0.729471875
vt 0.62724375 0.90625
vt 0.59375 0.90625
vt 0.6110876895371644 0.8415453945470232
vt 0.7231595486780729 0.90625
vt 0.59375 0.729471875
vt 0.6607375 0.729471875
vt 0.62724375 0.90625
vt 0.59375 0.90625
vt 0.59375 0.8392625
vt 0.71875 0.87275625
vt 0.59375 0.729471875
vt 0.6607375 0.729471875
vt 0.62724375 0.90625
vt 0.6584546898959516 0.90625
vt 0.59375 0.8889126256087824
vt 0.6584546898959516 0.776840620208097
vt 0.59375 0.729471875
vt 0.6607375 0.729471875
vt 0.62724375 0.90625
vt 0.6584546054529768 0.90625
vt 0.59375 0.8889123104628356
vt 0.6584546054529767 0.7768404513219271
vt 0.59375 0.729471875
vt 0.6607375 0.729471875
vt 0.62724375 0.90625
vt 0.6607375 0.90625
vt 0.59375 0.90625
vt 0.62724375 0.78125
vt 0.59375 0.729471875
vt 0.6607375 0.729471875
vt 0.62724375 0.90625
vn -1.2246467991473532e-16 1 0
vn -0.3417430630867046 -0.46989671174421854 0.8138849790505336
vn -1.2246467991473532e-16 1 0
vn -0.6651287945684315 -0.5280168968110512 0.5280168968110518
vn -1.2246467991473532e-16 1 0
vn -0.8240419241993676 -0.5665288228870654 0
vn -1.2246467991473532e-16 1 0
vn -0.6651287945684318 -0.5280168968110514 -0.5280168968110515
vn -1.2246467991473532e-16 1 0
vn -0.34174306308670405 -0.46989671174421854 -0.813884979050534
vn -1.2246467991473532e-16 1 0
vn -6.190462095513114e-16 -0.4472135954999579 -0.8944271909999161
vn -1.2246467991473532e-16 1 0
vn 0.3417430630867043 -0.46989671174421843 -0.8138849790505337
vn -1.2246467991473532e-16 1 0
vn 0.6651287945684325 -0.5280168968110511 -0.5280168968110507
vn -1.2246467991473532e-16 1 0
vn 0.824041924199368 -0.5665288228870651 -1.024302752176864e-15
vn -1.2246467991473532e-16 1 0
vn 0.6651287945684324 -0.5280168968110511 0.528016896811051
vn -1.2246467991473532e-16 1 0
vn 0.3417430630867047 -0.46989671174421854 0.8138849790505337
vn -1.2246467991473532e-16 1 0
vn 5.476786982642027e-17 -0.447213595499958 0.894427190999916
usemtl m_ab7c84cd-c7f2-66ef-9e27-7f9657bbc79c
f 56/241/75 55/242/75 53/243/75
f 55/244/76 56/245/76 54/246/76
f 57/247/77 56/248/77 53/249/77
f 56/250/78 57/251/78 54/252/78
f 58/253/79 57/254/79 53/255/79
f 57/256/80 58/257/80 54/258/80
f 59/259/81 58/260/81 53/261/81
f 58/262/82 59/263/82 54/264/82
f 60/265/83 59/266/83 53/267/83
f 59/268/84 60/269/84 54/270/84
f 61/271/85 60/272/85 53/273/85
f 60/274/86 61/275/86 54/276/86
f 62/277/87 61/278/87 53/279/87
f 61/280/88 62/281/88 54/282/88
f 63/283/89 62/284/89 53/285/89
f 62/286/90 63/287/90 54/288/90
f 64/289/91 63/290/91 53/291/91
f 63/292/92 64/293/92 54/294/92
f 65/295/93 64/296/93 53/297/93
f 64/298/94 65/299/94 54/300/94
f 66/301/95 65/302/95 53/303/95
f 65/304/96 66/305/96 54/306/96
f 55/307/97 66/308/97 53/309/97
f 66/310/98 55/311/98 54/312/98